<?xml version="1.0"?>
<svg width="200" height="200" xmlns="http://www.w3.org/2000/svg" xmlns:svg="http://www.w3.org/2000/svg">
 <!-- Created with SVG-edit - https://github.com/SVG-Edit/svgedit-->
 <g class="layer">
  <title>Layer 1</title>
  <path d="m63.94,189.06c-7.12,0.21 -17.54,-3.02 -10.26,-10.22c7.93,-2.74 -1.41,-11.83 6.53,-16.11c6.38,-7.97 15.04,-15.24 17.65,-24.97c-0.41,-6.6 -9.38,-10.5 -5.1,-17.81c-4.2,-11.69 -3.23,-25.14 4.44,-35.64c6.51,-9.76 14.42,-20.1 13.58,-31.9c-8.17,2.99 -16.81,5.61 -25.8,4.26c-8.45,-0.69 -16.03,5.32 -24.65,2.05c-8.74,-1.59 -13.93,-11.84 -7.42,-17.84c7.12,-5.34 17.58,-5.51 24.37,-11.46c8.96,-6.51 17.24,-15.32 29.59,-16.47c5.46,-1.1 7.8,-5.91 10.82,-9.51c2.51,5.72 6.88,10.78 13.45,13.31c13.36,6.79 16.69,21.15 21.61,32.95c3.64,9.24 6.68,18.9 12.78,27.15c0.06,3.96 -6.78,5.63 -2.16,10.28c2.41,12.59 2.51,25.49 2.3,38.23c-4.06,6.23 -7.75,13.19 -2.34,20.35c3.61,8.75 12.62,14.48 17.05,22.73c2.5,4.27 -4.88,10.48 4.32,9.4c8.4,3.9 1.62,13.42 -6.74,10.65c-31.32,0.7 -62.71,1.4 -94.02,0.57z" fill="#7f00ff" id="svg_6" stroke="#ffffff"/>
 </g>
</svg>