<?xml version="1.0"?>
<svg width="200" height="200" xmlns="http://www.w3.org/2000/svg" xmlns:svg="http://www.w3.org/2000/svg">
 <!-- Created with SVG-edit - https://github.com/SVG-Edit/svgedit-->
 <g class="layer">
  <title>Layer 1</title>
  <path d="m160.44,96.84c0,-10.03 -8.13,-18.16 -18.16,-18.16l0,0c3.28,-3.29 5.32,-7.83 5.32,-12.84c0,-10.03 -8.13,-18.16 -18.16,-18.16c-5.01,0 -9.55,2.03 -12.84,5.32c0,-10.03 -8.13,-18.16 -18.16,-18.16c-10.03,0 -18.16,8.13 -18.16,18.16c-3.29,-3.28 -7.83,-5.32 -12.84,-5.32c-10.03,0 -18.16,8.13 -18.16,18.16c0,5.01 2.03,9.55 5.32,12.84c-10.03,0 -18.16,8.13 -18.16,18.16c0,10.03 8.13,18.16 18.16,18.16c-3.29,3.28 -5.32,7.83 -5.32,12.84c0,10.03 8.13,18.16 18.16,18.16c5.01,0 9.55,-2.03 12.84,-5.32c0,10.03 8.13,18.16 18.16,18.16c10.03,0 18.16,-8.13 18.16,-18.16l0,0c3.29,3.29 7.83,5.32 12.84,5.32c10.03,0 18.16,-8.13 18.16,-18.16c0,-5.02 -2.03,-9.56 -5.32,-12.85c0,0 0,0 0,0c10.03,0 18.16,-8.13 18.16,-18.16l0,0.01zm-31.19,21.17c0.06,0 0.13,0 0.19,0c5.43,0 9.83,4.4 9.83,9.83c0,5.43 -4.4,9.83 -9.83,9.83s-9.83,-4.4 -9.83,-9.83c0,-0.07 0,-0.13 0,-0.19l-14.36,-14.36l0,20.31c1.85,1.78 3.01,4.3 3.01,7.08c0,5.43 -4.4,9.83 -9.83,9.83c-5.43,0 -9.83,-4.4 -9.83,-9.83c0,-2.79 1.16,-5.3 3.01,-7.08l0,-20.31l-14.36,14.36c0,0.06 0,0.13 0,0.19c0,5.43 -4.4,9.83 -9.83,9.83s-9.83,-4.4 -9.83,-9.83c0,-5.43 4.4,-9.83 9.83,-9.83c0.06,0 0.13,0 0.19,0l14.36,-14.36l-20.31,0c-1.78,1.86 -4.3,3.01 -7.08,3.01c-5.43,0 -9.83,-4.4 -9.83,-9.83s4.4,-9.83 9.83,-9.83c2.78,0 5.29,1.16 7.08,3.02l20.31,0l-14.36,-14.36c-0.06,0 -0.13,0 -0.19,0c-5.43,0 -9.83,-4.4 -9.83,-9.83s4.4,-9.83 9.83,-9.83s9.83,4.4 9.83,9.83c0,0.06 0,0.13 0,0.19l14.36,14.36l0,-20.31c-1.85,-1.79 -3.01,-4.3 -3.01,-7.08c0,-5.43 4.4,-9.83 9.83,-9.83c5.43,0 9.83,4.4 9.83,9.83c0,2.78 -1.16,5.29 -3.01,7.08l0,20.31l14.36,-14.36c0,-0.06 0,-0.13 0,-0.19c0,-5.43 4.4,-9.83 9.83,-9.83s9.83,4.4 9.83,9.83c0,5.43 -4.4,9.83 -9.83,9.83c-0.06,0 -0.13,0 -0.19,0l-14.36,14.36l20.31,0c1.79,-1.86 4.3,-3.02 7.08,-3.02c5.43,0 9.82,4.4 9.82,9.83s-4.4,9.83 -9.82,9.83c-2.79,0 -5.3,-1.16 -7.08,-3.01l-20.31,0l14.35,14.36l0.01,0z" fill="#00ff00" id="svg_1" stroke="black" stroke-width="5"/>
  <path d="m35.64,27.17l6.52,-6.52l6.52,6.52l-6.52,6.52l-6.52,-6.52zm-7.34,7.39l6.52,-6.52l6.52,6.52l-6.52,6.52l-6.52,-6.52zm14.83,0.13l6.52,-6.52l6.52,6.52l-6.52,6.52l-6.52,-6.52zm-7.34,7.39l6.52,-6.52l6.52,6.52l-6.52,6.52l-6.52,-6.52z" fill="#ff7f00" id="svg_5" stroke="#ffffff"/>
  <path d="m149.65,29.37l5.65,-5.65l5.65,5.65l-5.65,5.65l-5.65,-5.65zm-6.36,6.4l5.65,-5.65l5.65,5.65l-5.65,5.65l-5.65,-5.65zm12.85,0.12l5.65,-5.65l5.65,5.65l-5.65,5.65l-5.65,-5.65zm-6.36,6.4l5.65,-5.65l5.65,5.65l-5.65,5.65l-5.65,-5.65z" fill="#00ffff" id="svg_6" stroke="#ffffff"/>
  <path d="m33.48,160.98l6.23,-6.23l6.23,6.23l-6.23,6.23l-6.23,-6.23zm-7.02,7.06l6.23,-6.23l6.23,6.23l-6.23,6.23l-6.23,-6.23zm14.17,0.13l6.23,-6.23l6.23,6.23l-6.23,6.23l-6.23,-6.23zm-7.02,7.06l6.23,-6.23l6.23,6.23l-6.23,6.23l-6.23,-6.23z" fill="#7f00ff" id="svg_8" stroke="#ffffff" transform="matrix(1 0 0 1 0 0)"/>
  <path d="m151.22,162.46l6.52,-6.52l6.52,6.52l-6.52,6.52l-6.52,-6.52zm-7.34,7.39l6.52,-6.52l6.52,6.52l-6.52,6.52l-6.52,-6.52zm14.83,0.13l6.52,-6.52l6.52,6.52l-6.52,6.52l-6.52,-6.52zm-7.34,7.39l6.52,-6.52l6.52,6.52l-6.52,6.52l-6.52,-6.52z" fill="#ff0000" id="svg_9" stroke="#ffffff" transform="matrix(1 0 0 1 0 0)"/>
 </g>
</svg>