<?xml version="1.0"?>
<svg width="200" height="200" xmlns="http://www.w3.org/2000/svg" xmlns:svg="http://www.w3.org/2000/svg">
 <!-- Created with SVG-edit - https://github.com/SVG-Edit/svgedit-->
 <g class="layer">
  <title>Layer 1</title>
  <path d="m62.14,180.39c-4.51,-5.26 7.06,-5.41 5.25,-11.24c3.32,-7.73 11.97,-12.41 13.24,-21.2c-3.51,-2.44 -5.52,-8.35 1.17,-7.65c4.9,-3.69 4.29,-11.25 5.77,-16.79c1.38,-8.95 1.69,-18.01 2.29,-27.03c-5.67,-0.44 -11.49,-0.13 -17.02,-1.59c0.16,-6 11.41,-3.7 11.92,-9.36c8.18,-0.15 0.45,-12.37 -2.88,-15.28c-4.26,-4.92 -7.1,-12.68 -3.86,-18.75c4.64,-3.08 15.12,-1.21 14.65,-9.3c-3.15,-1.8 -7.16,-0.66 -10.69,-0.97c0.22,-3.78 0.43,-7.55 0.65,-11.33c4.67,-0.36 9.35,-0.72 14.02,-1.08c-2.37,-2.47 -5.92,-4.28 -6.81,-7.77c3.02,-4.97 10.31,-4.53 15.52,-4.48c5.07,-0.35 14.32,3.03 7.41,8.49c-0.56,1.34 -6.02,4.67 -2.64,4.3c4.32,0 8.63,0 12.95,0c-0.01,3.69 -0.11,7.42 0.76,11.03c-3.3,2.45 -13.98,-2.1 -10.94,5.48c3.43,3.17 8.67,3.08 13.02,4.48c2.53,0.25 4.55,0.91 3.64,3.88c0.48,5.5 -0.91,11.03 -4.69,15.21c-2.68,4.36 -8.69,9.81 -6.91,14.85c3.37,-0.55 6.07,1.66 3.38,4.15c2.76,2.04 12.48,1.58 10.37,6.69c-4.92,1.63 -10.21,0.95 -15.32,1.12c1.36,13.96 3.24,27.93 6.38,41.6c1.84,3.03 9.13,5.37 3.14,9.32c-2.23,7.37 4.9,12.88 9.38,17.61c4.93,3.69 2.54,11.11 9.51,12.3c5.49,5.32 -7.54,5.18 -10.88,5.19c-22.14,0.24 -44.3,0.57 -66.43,-0.14c-1.81,-0.23 -4.05,-0.18 -5.34,-1.72z" fill="#ffff00" id="svg_2" stroke="#ffffff"/>
 </g>
</svg>