<?xml version="1.0"?>
<svg width="200" height="200" xmlns="http://www.w3.org/2000/svg" xmlns:svg="http://www.w3.org/2000/svg">
 <!-- Created with SVG-edit - https://github.com/SVG-Edit/svgedit-->
 <g class="layer">
  <title>Layer 1</title>
  <path d="m7.77,98.94l0,0c0,-49.71 41.19,-90 92,-90l0,0c24.4,0 47.8,9.48 65.05,26.36c17.25,16.88 26.95,39.77 26.95,63.64l0,0c0,49.71 -41.19,90 -92,90l0,0c-50.81,0 -92,-40.29 -92,-90zm148.56,40.26l0,0c20.26,-27.23 17.24,-64.83 -7.1,-88.65c-24.34,-23.81 -62.78,-26.76 -90.62,-6.94l97.71,95.59l0.01,0zm-113.12,-80.52c-20.26,27.23 -17.24,64.83 7.1,88.65c24.34,23.81 62.78,26.76 90.62,6.94l-97.71,-95.59l-0.01,0z" fill="#ff7f00" id="svg_2" stroke="#ffffff"/>
 </g>
</svg>