<?xml version="1.0"?>
<svg width="200" height="200" xmlns="http://www.w3.org/2000/svg" xmlns:svg="http://www.w3.org/2000/svg">
 <!-- Created with SVG-edit - https://github.com/SVG-Edit/svgedit-->
 <g class="layer">
  <title>Layer 1</title>
  <path d="m13.11,38.79c-1.66,8.9 3.04,17.38 6.71,25.07c7.81,13.57 16.88,26.62 28.26,37.17c7.76,6.68 14.76,14.37 23.55,19.67c11.49,8.1 23.83,14.72 36.62,20.24c9.51,4.33 19.49,7.41 29.68,9.43c2.96,0.8 11.25,3.07 6.1,-2.25c-4.28,-1.89 -8.83,-3.27 -13.13,-5.24c-20.88,-8.96 -43.07,-16.84 -59.91,-33.19c-2.79,-3.88 5.36,2.09 6.76,3.73c14.05,10.46 30.11,17.47 45.94,24.4c8.05,2.79 16.86,8.74 25.42,4.52c7.39,-2.95 -1.77,-3.41 -5.03,-4.53c-14.52,-4.32 -29.2,-8.46 -42.53,-16.1c-7.61,-2.91 -14,-8.27 -20.84,-12.68c-7.38,-5.33 -14.14,-11.56 -21.33,-17.19c-4.7,-3.73 -9.38,-7.49 -13.27,-12.17c-6.59,-6.89 -12.97,-13.98 -18.94,-21.46c-3.9,-4.6 -8.29,-8.82 -11.03,-14.34l-3.02,-5.07zm153.31,86.96c-0.9,-0.03 -1.83,0.18 -2.61,0.72c-5.81,3.04 -4.57,8.68 -7.89,13.02c-2.49,3.47 -5.4,5.21 -9.55,6.51c0.83,1.74 2.49,4.34 2.49,6.51c0,4.77 -5.4,9.12 -9.55,8.68c-1.66,-0.43 -5.4,-2.6 -6.64,0c-0.42,0.87 -0.42,1.74 0,2.17c0,1.74 2.08,2.6 3.74,3.47c4.57,1.3 9.55,-0.43 13.29,-3.04c2.91,-1.74 4.98,-4.77 5.81,-8.25l0.83,-5.64c0.42,-1.74 2.08,-2.17 4.15,-5.21c2.49,-3.47 4.98,-9.55 8.3,-12.15c1.25,-0.87 2.49,-1.3 4.15,-1.74c-0.83,-1.3 -1.66,-2.17 -2.49,-3.47c-0.83,-0.43 -1.66,-1.3 -2.49,-1.3c-0.47,-0.16 -1,-0.27 -1.54,-0.28zm17.58,16.39c-1.56,-0.02 -3.19,0.34 -4.83,0.83l3.32,2.17c-0.83,1.74 -2.91,5.21 -2.49,7.38c0.42,4.34 6.23,4.34 8.72,1.74c2.91,-3.47 2.91,-8.68 -1.25,-11.29c-1.09,-0.57 -2.26,-0.81 -3.48,-0.83zm-8,2.13c-0.32,0 -0.64,0 -0.96,0.01c-2.3,0.13 -4.6,0.31 -6.9,0.42c-1.45,0.02 -2.92,0 -4.32,0.43c-1.9,1.27 -3.16,3.36 -3.91,5.55c-0.1,0.31 -0.18,0.64 -0.25,0.96c2.31,1.09 4.89,0.98 7.36,0.88c1.5,-0.04 2.99,0.15 4.49,0.23c1.07,0.05 2.13,0.2 3.2,0.16c1.31,-0.05 2.53,-0.82 3.22,-1.98c0.6,-0.99 1.16,-2.01 1.53,-3.12c0.3,-0.99 0.35,-2.38 -0.64,-2.97c-0.86,-0.5 -1.85,-0.59 -2.83,-0.58zm1.52,9.98c-0.42,0.43 -0.83,0.43 -1.25,0.87c-0.42,2.17 4.98,7.38 5.81,2.6c-2.08,-0.87 -3.32,-1.74 -4.57,-3.47z" fill="#ff0000" id="svg_1" stroke="#ffffff" transform="matrix(1 0 0 1 0 0) rotate(28.9111 101.765 103.038)"/>
  <path d="m17.11,41.79c-1.66,8.9 3.04,17.38 6.71,25.07c7.81,13.57 16.88,26.62 28.26,37.17c7.76,6.68 14.76,14.37 23.55,19.67c11.49,8.1 23.83,14.72 36.62,20.24c9.51,4.33 19.49,7.41 29.68,9.43c2.96,0.8 11.25,3.07 6.1,-2.25c-4.28,-1.89 -8.83,-3.27 -13.13,-5.24c-20.88,-8.96 -43.07,-16.84 -59.91,-33.19c-2.79,-3.88 5.36,2.09 6.76,3.73c14.05,10.46 30.11,17.47 45.94,24.4c8.05,2.79 16.86,8.74 25.42,4.52c7.39,-2.95 -1.77,-3.41 -5.03,-4.53c-14.52,-4.32 -29.2,-8.46 -42.53,-16.1c-7.61,-2.91 -14,-8.27 -20.84,-12.68c-7.38,-5.33 -14.14,-11.56 -21.33,-17.19c-4.7,-3.73 -9.38,-7.49 -13.27,-12.17c-6.59,-6.89 -12.97,-13.98 -18.94,-21.46c-3.9,-4.6 -8.29,-8.82 -11.03,-14.34l-3.02,-5.07zm153.31,86.96c-0.9,-0.03 -1.83,0.18 -2.61,0.72c-5.81,3.04 -4.57,8.68 -7.89,13.02c-2.49,3.47 -5.4,5.21 -9.55,6.51c0.83,1.74 2.49,4.34 2.49,6.51c0,4.77 -5.4,9.12 -9.55,8.68c-1.66,-0.43 -5.4,-2.6 -6.64,0c-0.42,0.87 -0.42,1.74 0,2.17c0,1.74 2.08,2.6 3.74,3.47c4.57,1.3 9.55,-0.43 13.29,-3.04c2.91,-1.74 4.98,-4.77 5.81,-8.25l0.83,-5.64c0.42,-1.74 2.08,-2.17 4.15,-5.21c2.49,-3.47 4.98,-9.55 8.3,-12.15c1.25,-0.87 2.49,-1.3 4.15,-1.74c-0.83,-1.3 -1.66,-2.17 -2.49,-3.47c-0.83,-0.43 -1.66,-1.3 -2.49,-1.3c-0.47,-0.16 -1,-0.27 -1.54,-0.28zm17.58,16.39c-1.56,-0.02 -3.19,0.34 -4.83,0.83l3.32,2.17c-0.83,1.74 -2.91,5.21 -2.49,7.38c0.42,4.34 6.23,4.34 8.72,1.74c2.91,-3.47 2.91,-8.68 -1.25,-11.29c-1.09,-0.57 -2.26,-0.81 -3.48,-0.83zm-8,2.13c-0.32,0 -0.64,0 -0.96,0.01c-2.3,0.13 -4.6,0.31 -6.9,0.42c-1.45,0.02 -2.92,0 -4.32,0.43c-1.9,1.27 -3.16,3.36 -3.91,5.55c-0.1,0.31 -0.18,0.64 -0.25,0.96c2.31,1.09 4.89,0.98 7.36,0.88c1.5,-0.04 2.99,0.15 4.49,0.23c1.07,0.05 2.13,0.2 3.2,0.16c1.31,-0.05 2.53,-0.82 3.22,-1.98c0.6,-0.99 1.16,-2.01 1.53,-3.12c0.3,-0.99 0.35,-2.38 -0.64,-2.97c-0.86,-0.5 -1.85,-0.59 -2.83,-0.58zm1.52,9.98c-0.42,0.43 -0.83,0.43 -1.25,0.87c-0.42,2.17 4.98,7.38 5.81,2.6c-2.08,-0.87 -3.32,-1.74 -4.57,-3.47z" fill="#ff0000" id="svg_4" stroke="#ffffff" transform="rotate(95.6657 105.765 106.038)"/>
 </g>
</svg>